External Loads File
version=1
nRows=69
nColumns=13
Range=5.000000e-03-10 seconds
endheader
time 	forceRightX 	forceRightY 	forceRightZ 	pointRightX 	pointRightY 	pointRightZ 	forceLeftX 	forceLeftY 	forceLeftZ 	pointLeftX 	pointLeftY 	pointLeftZ 		
5.005000 -14.916449 -18.171807 -0.000000 0.118542 0.413168 -0.119690 70.050936 951.467249 -0.000000 0.307815 0.192385 -0.364005
5.010000 -21.077090 -13.574087 -0.000000 0.125609 0.421226 -0.120984 89.600173 975.443872 -0.000000 0.299838 0.185081 -0.363642
5.015000 -27.552703 -8.347503 -0.000000 0.134211 0.428316 -0.121055 113.666161 994.417645 -0.000000 0.291580 0.178267 -0.363315
5.020000 -34.261886 -2.634893 -0.000000 0.145903 0.435048 -0.120874 148.214525 1005.683733 -0.000000 0.283035 0.172016 -0.362933
5.025000 -41.146098 2.525926 -0.000000 0.154079 0.440877 -0.120872 172.469676 1010.440705 -0.000000 0.274302 0.165912 -0.362295
5.030000 -48.376377 7.167667 -0.000000 0.162909 0.446238 -0.120914 197.260802 1006.008778 -0.000000 0.265363 0.160683 -0.362172
5.035000 -55.997823 11.325021 -0.000000 0.173048 0.451048 -0.120541 224.223837 990.923788 -0.000000 0.256223 0.156009 -0.362095
5.040000 -64.092983 14.728201 -0.000000 0.182410 0.455006 -0.121047 245.544114 966.263042 -0.000000 0.247024 0.151872 -0.358149
5.045000 -72.536512 17.817609 -0.000000 0.192350 0.458309 -0.121453 264.487890 931.183139 -0.000000 0.237737 0.148356 -0.358045
5.050000 -81.166538 20.778859 -0.000000 0.202814 0.460864 -0.121405 279.703888 886.144774 -0.000000 0.228510 0.145339 -0.362240
5.055000 -90.074848 22.582980 -0.000000 0.209307 0.462843 -0.128530 279.409689 835.518727 -0.000000 0.219324 0.142980 -0.362299
5.060000 -98.483978 25.419604 -0.000000 0.219621 0.464428 -0.128167 283.815160 773.488186 -0.000000 0.210219 0.141192 -0.362480
5.065000 -106.260989 28.662344 -0.000000 0.230261 0.465094 -0.128245 282.888656 704.302304 -0.000000 0.201322 0.140070 -0.362630
5.070000 -112.961488 32.583225 -0.000000 0.240752 0.465399 -0.128367 276.199236 629.864216 -0.000000 0.192405 0.139694 -0.362555
5.075000 -117.990685 37.641282 -0.000000 0.251401 0.465032 -0.127946 264.705733 552.103971 -0.000000 0.183584 0.140225 -0.362617
5.080000 -120.720642 44.137965 -0.000000 0.261732 0.463950 -0.127569 248.957106 473.499847 -0.000000 0.174564 0.141726 -0.362461
5.085000 -120.514597 52.377590 -0.000000 0.272026 0.462323 -0.128054 230.050990 396.253273 -0.000000 0.165446 0.143981 -0.362062
5.090000 -116.882405 62.527734 -0.000000 0.282257 0.460053 -0.127018 208.721754 322.242322 -0.000000 0.156361 0.147022 -0.361751
5.095000 -109.639410 74.610190 -0.000000 0.291952 0.457281 -0.125410 185.270886 252.834803 -0.000000 0.147543 0.150721 -0.361400
5.100000 -98.882121 88.841136 -0.000000 0.300504 0.453939 -0.124100 160.314408 188.373145 -0.000000 0.139042 0.154639 -0.361078
5.105000 -84.794880 105.907443 -0.000000 0.307672 0.450042 -0.123976 134.875201 128.036617 -0.000000 0.130932 0.159132 -0.360714
5.110000 -67.511039 126.817708 -0.000000 0.314009 0.445610 -0.123706 109.723927 70.386355 -0.000000 0.123138 0.164098 -0.360328
5.115000 -47.485545 152.427990 -0.000000 0.319669 0.440565 -0.123161 84.904523 14.272459 -0.000000 0.115977 0.169386 -0.360147
5.120000 -25.250078 183.519396 -0.000000 0.324137 0.434978 -0.122044 60.306181 -41.171476 -0.000000 0.108952 0.175249 -0.360013
5.125000 -0.977572 220.520731 -0.000000 0.329091 0.429162 -0.122074 35.368931 -96.082985 -0.000000 0.102329 0.181765 -0.360081
5.130000 23.933985 263.220453 -0.000000 0.333237 0.422934 -0.121658 9.744585 -149.223905 -0.000000 0.096067 0.188894 -0.359490
5.135000 48.385224 310.902290 -0.000000 0.337058 0.415964 -0.121360 -16.688936 -198.602564 -0.000000 0.090773 0.196446 -0.359143
5.140000 71.003412 362.178951 -0.000000 0.340643 0.408489 -0.120545 -43.410729 -241.654576 -0.000000 0.086206 0.204050 -0.359237
5.145000 90.893875 415.000655 -0.000000 0.344331 0.400366 -0.120232 -69.495320 -275.822363 -0.000000 0.082616 0.211677 -0.359479
5.150000 107.384546 466.991639 -0.000000 0.347840 0.392126 -0.120644 -93.410293 -299.160100 -0.000000 0.079224 0.219589 -0.359782
5.155000 119.705369 515.926239 -0.000000 0.350894 0.383778 -0.121127 -113.006098 -310.808992 -0.000000 0.076154 0.227852 -0.360052
5.160000 129.080838 559.613657 -0.000000 0.353733 0.374804 -0.121489 -127.178071 -310.623406 -0.000000 0.073301 0.236660 -0.360024
5.165000 136.698578 596.643797 -0.000000 0.356141 0.364596 -0.121491 -134.867669 -299.523972 -0.000000 0.070553 0.245893 -0.360044
5.170000 142.944415 626.653820 -0.000000 0.358161 0.353731 -0.121406 -135.075793 -279.569679 -0.000000 0.067694 0.255812 -0.358851
5.175000 146.290460 650.474879 -0.000000 0.359826 0.342733 -0.121393 -126.864844 -253.824517 -0.000000 0.065392 0.266070 -0.358853
5.180000 146.768685 669.116585 -0.000000 0.360872 0.331877 -0.120998 -111.104763 -225.042820 -0.000000 0.063546 0.276690 -0.358909
5.185000 146.717372 683.391796 -0.000000 0.361553 0.320194 -0.120930 -90.081933 -195.290747 -0.000000 0.062114 0.287360 -0.359042
5.190000 144.499623 695.098382 -0.000000 0.361807 0.308775 -0.120962 -65.114676 -166.743883 -0.000000 0.061384 0.298164 -0.359112
5.195000 139.948873 705.654205 -0.000000 0.361523 0.297888 -0.121184 -38.228107 -140.597161 -0.000000 0.061362 0.308984 -0.359460
5.200000 134.046316 716.087635 -0.000000 0.360736 0.287377 -0.121096 -11.525664 -117.367659 -0.000000 0.061916 0.319771 -0.359712
5.205000 129.172039 726.999780 -0.000000 0.359152 0.276576 -0.121644 13.116633 -97.168167 -0.000000 0.063224 0.330479 -0.359986
5.210000 124.897968 739.348776 -0.000000 0.357269 0.265835 -0.121856 34.778172 -79.772603 -0.000000 0.065246 0.341063 -0.360250
5.215000 121.044906 753.808369 -0.000000 0.354554 0.255606 -0.122085 52.937898 -64.568234 -0.000000 0.067982 0.351474 -0.360529
5.220000 118.973907 770.496879 -0.000000 0.351172 0.245566 -0.122230 67.423953 -50.984305 -0.000000 0.071347 0.361666 -0.360462
5.225000 119.785569 789.239648 -0.000000 0.347069 0.235735 -0.122209 78.493875 -38.668330 -0.000000 0.075582 0.371594 -0.360765
5.230000 124.169543 809.636711 -0.000000 0.342391 0.225917 -0.122110 86.580302 -27.574917 -0.000000 0.080428 0.381209 -0.360728
5.235000 131.579888 831.277218 -0.000000 0.337452 0.216405 -0.121674 92.071199 -17.886649 -0.000000 0.086051 0.390466 -0.360755
5.240000 144.432699 853.098442 -0.000000 0.330991 0.207212 -0.122083 95.048203 -10.391881 -0.000000 0.092510 0.399319 -0.360867
5.245000 160.179956 874.654112 -0.000000 0.324442 0.198372 -0.122060 95.359682 -5.472870 -0.000000 0.099590 0.407719 -0.360838
5.250000 179.356911 894.903889 -0.000000 0.317293 0.190126 -0.122000 92.447987 -3.853574 -0.000000 0.107391 0.415621 -0.360866
5.255000 204.458973 912.308233 -0.000000 0.309698 0.182203 -0.121914 85.555828 -6.281638 -0.000000 0.116911 0.422978 -0.363847
5.260000 231.763916 926.606457 -0.000000 0.301727 0.174633 -0.121816 73.960220 -12.591694 -0.000000 0.126784 0.429744 -0.364438
5.265000 261.260996 936.834785 -0.000000 0.293239 0.167373 -0.121743 57.134792 -22.709523 -0.000000 0.137100 0.435872 -0.365001
5.270000 282.993312 945.039705 -0.000000 0.284588 0.161163 -0.121349 35.230148 -35.857354 -0.000000 0.145251 0.441315 -0.361073
5.275000 310.689528 946.577994 -0.000000 0.275640 0.155048 -0.121179 8.070042 -52.267698 -0.000000 0.155971 0.446027 -0.361078
5.280000 336.548794 943.044921 -0.000000 0.266391 0.149603 -0.120843 -23.568856 -70.801703 -0.000000 0.166939 0.449960 -0.361133
5.285000 359.091918 934.477695 -0.000000 0.257310 0.144672 -0.120709 -58.621602 -90.535757 -0.000000 0.178184 0.453427 -0.361433
5.290000 378.383471 920.466033 -0.000000 0.247891 0.140378 -0.120281 -95.671764 -110.149438 -0.000000 0.189407 0.456746 -0.361532
5.295000 392.967781 901.277251 -0.000000 0.238543 0.136013 -0.119992 -132.678386 -128.083099 -0.000000 0.200668 0.459160 -0.362364
5.300000 401.909805 877.080402 -0.000000 0.229172 0.133181 -0.119707 -167.270250 -142.641094 -0.000000 0.211671 0.461334 -0.362418
5.305000 405.778631 847.437408 -0.000000 0.219805 0.130572 -0.119695 -197.196015 -152.021981 -0.000000 0.222536 0.463125 -0.362579
5.310000 403.807525 812.664229 -0.000000 0.210576 0.128627 -0.119365 -220.204257 -155.274841 -0.000000 0.233075 0.464026 -0.362287
5.315000 395.510730 773.234482 -0.000000 0.201545 0.127223 -0.119046 -234.660505 -152.391433 -0.000000 0.243110 0.465186 -0.362641
5.320000 383.393651 728.373907 -0.000000 0.192578 0.126418 -0.118769 -240.420499 -143.351554 -0.000000 0.253346 0.465491 -0.363661
5.325000 365.239636 679.935502 -0.000000 0.183918 0.126204 -0.118614 -237.368042 -130.192433 -0.000000 0.262746 0.465385 -0.363559
5.330000 344.572519 626.769823 -0.000000 0.175382 0.126714 -0.118507 -227.259973 -113.213227 -0.000000 0.272221 0.464052 -0.363794
5.335000 320.065524 570.232054 -0.000000 0.167299 0.127880 -0.118111 -211.381302 -94.176687 -0.000000 0.281345 0.462950 -0.363974
5.340000 294.657373 509.264925 -0.000000 0.158370 0.129674 -0.118526 -191.942554 -73.010025 -0.000000 0.290173 0.461450 -0.364315
5.345000 265.302744 446.212214 -0.000000 0.150825 0.132408 -0.118091 -170.176938 -51.582072 -0.000000 0.298471 0.460551 -0.364493
